<mxfile host="app.diagrams.net" modified="2020-12-14T12:39:33.487Z" agent="5.0 (Windows)" etag="tt_62ynrgp6TyrWuVQUQ" version="14.0.0" type="github">
  <diagram id="HRKqEmTnOCS5fuT91VOO" name="Page-1">
    <mxGraphModel dx="1038" dy="547" grid="1" gridSize="10" guides="1" tooltips="1" connect="1" arrows="1" fold="1" page="1" pageScale="1" pageWidth="1169" pageHeight="827" math="0" shadow="0">
      <root>
        <mxCell id="0" />
        <mxCell id="1" parent="0" />
        <mxCell id="w2uGk0D4AiONOriBWuO--1" value="STOCK COUNTS/TAKING" style="swimlane;" vertex="1" parent="1">
          <mxGeometry x="10" y="10" width="1150" height="810" as="geometry" />
        </mxCell>
        <mxCell id="w2uGk0D4AiONOriBWuO--2" value="Start" style="rounded=1;whiteSpace=wrap;html=1;" vertex="1" parent="w2uGk0D4AiONOriBWuO--1">
          <mxGeometry x="370" y="50" width="100" height="60" as="geometry" />
        </mxCell>
        <mxCell id="w2uGk0D4AiONOriBWuO--3" value="The head of procurement recommends a team to carry out stocktaking" style="rounded=0;whiteSpace=wrap;html=1;" vertex="1" parent="w2uGk0D4AiONOriBWuO--1">
          <mxGeometry x="345" y="190" width="150" height="70" as="geometry" />
        </mxCell>
        <mxCell id="w2uGk0D4AiONOriBWuO--4" value="" style="edgeStyle=orthogonalEdgeStyle;rounded=0;orthogonalLoop=1;jettySize=auto;html=1;entryX=0.5;entryY=0;entryDx=0;entryDy=0;" edge="1" parent="w2uGk0D4AiONOriBWuO--1" source="w2uGk0D4AiONOriBWuO--2" target="w2uGk0D4AiONOriBWuO--3">
          <mxGeometry relative="1" as="geometry">
            <mxPoint x="420" y="190" as="targetPoint" />
          </mxGeometry>
        </mxCell>
        <mxCell id="w2uGk0D4AiONOriBWuO--5" value="Accounting officer/CEO appoints a team to carry out stocktaking" style="whiteSpace=wrap;html=1;rounded=0;" vertex="1" parent="w2uGk0D4AiONOriBWuO--1">
          <mxGeometry x="350" y="330" width="140" height="60" as="geometry" />
        </mxCell>
        <mxCell id="w2uGk0D4AiONOriBWuO--6" value="" style="edgeStyle=orthogonalEdgeStyle;rounded=0;orthogonalLoop=1;jettySize=auto;html=1;" edge="1" parent="w2uGk0D4AiONOriBWuO--1" source="w2uGk0D4AiONOriBWuO--3" target="w2uGk0D4AiONOriBWuO--5">
          <mxGeometry relative="1" as="geometry" />
        </mxCell>
        <mxCell id="w2uGk0D4AiONOriBWuO--7" value="Secretary stock take committee inducts stock take members" style="whiteSpace=wrap;html=1;rounded=0;" vertex="1" parent="w2uGk0D4AiONOriBWuO--1">
          <mxGeometry x="350" y="450" width="140" height="60" as="geometry" />
        </mxCell>
        <mxCell id="w2uGk0D4AiONOriBWuO--8" value="" style="edgeStyle=orthogonalEdgeStyle;rounded=0;orthogonalLoop=1;jettySize=auto;html=1;" edge="1" parent="w2uGk0D4AiONOriBWuO--1" source="w2uGk0D4AiONOriBWuO--5" target="w2uGk0D4AiONOriBWuO--7">
          <mxGeometry relative="1" as="geometry" />
        </mxCell>
        <mxCell id="w2uGk0D4AiONOriBWuO--9" value="Committee forwarding of the stock take report to the HoD Procurement" style="whiteSpace=wrap;html=1;rounded=0;" vertex="1" parent="w2uGk0D4AiONOriBWuO--1">
          <mxGeometry x="700" y="580" width="130" height="80" as="geometry" />
        </mxCell>
        <mxCell id="w2uGk0D4AiONOriBWuO--10" value="End" style="rounded=1;whiteSpace=wrap;html=1;" vertex="1" parent="w2uGk0D4AiONOriBWuO--1">
          <mxGeometry x="715" y="260" width="100" height="60" as="geometry" />
        </mxCell>
        <mxCell id="w2uGk0D4AiONOriBWuO--11" value="" style="edgeStyle=orthogonalEdgeStyle;rounded=0;orthogonalLoop=1;jettySize=auto;html=1;" edge="1" parent="1" source="w2uGk0D4AiONOriBWuO--12" target="w2uGk0D4AiONOriBWuO--9">
          <mxGeometry relative="1" as="geometry" />
        </mxCell>
        <mxCell id="w2uGk0D4AiONOriBWuO--12" value="Stock taking takes place based on data extracted from the system" style="whiteSpace=wrap;html=1;rounded=0;" vertex="1" parent="1">
          <mxGeometry x="350" y="600" width="160" height="60" as="geometry" />
        </mxCell>
        <mxCell id="w2uGk0D4AiONOriBWuO--13" value="" style="edgeStyle=orthogonalEdgeStyle;rounded=0;orthogonalLoop=1;jettySize=auto;html=1;" edge="1" parent="1" source="w2uGk0D4AiONOriBWuO--7" target="w2uGk0D4AiONOriBWuO--12">
          <mxGeometry relative="1" as="geometry" />
        </mxCell>
        <mxCell id="w2uGk0D4AiONOriBWuO--14" value="" style="edgeStyle=orthogonalEdgeStyle;rounded=0;orthogonalLoop=1;jettySize=auto;html=1;entryX=0.5;entryY=1;entryDx=0;entryDy=0;" edge="1" parent="1" source="w2uGk0D4AiONOriBWuO--15" target="w2uGk0D4AiONOriBWuO--10">
          <mxGeometry relative="1" as="geometry">
            <mxPoint x="775" y="330" as="targetPoint" />
          </mxGeometry>
        </mxCell>
        <mxCell id="w2uGk0D4AiONOriBWuO--15" value="HoD procurement forward the stock take report to the Accounting Officer/CEO and HoD Finance" style="whiteSpace=wrap;html=1;rounded=0;" vertex="1" parent="1">
          <mxGeometry x="680" y="420" width="190" height="80" as="geometry" />
        </mxCell>
        <mxCell id="w2uGk0D4AiONOriBWuO--16" value="" style="edgeStyle=orthogonalEdgeStyle;rounded=0;orthogonalLoop=1;jettySize=auto;html=1;" edge="1" parent="1" source="w2uGk0D4AiONOriBWuO--9" target="w2uGk0D4AiONOriBWuO--15">
          <mxGeometry relative="1" as="geometry" />
        </mxCell>
      </root>
    </mxGraphModel>
  </diagram>
</mxfile>
